# xmcd
#
# Track frame offsets: 
#        150
#        21330
#        34750
#        54539
#        63384
#        77078
#        94936
#        114371
#        134901
#        143713
#        159733
#
# Disc length: 2316 seconds
#
# Revision: 0
# Processed by: cddbd v1.5.2PL0 Copyright (c) Steve Scherf et al.
# Submitted via: ExactAudioCopy v1.3
#
DISCID=9a090a0b
DTITLE=The Nighthawks - Side Pocket Shot
DYEAR=1977
DGENRE=Harmonica Blues, Electric Blues
TTITLE0=Are You Lonely (For Me Baby)
TTITLE1=Slow Down
TTITLE2=I Keep Cryin'
TTITLE3=James' Hawaiian Punch
TTITLE4=Honky Tonk Queen
TTITLE5=I'll Get The News
TTITLE6=Tramp On The Highway
TTITLE7=Love's So Hard (To Understand)
TTITLE8=Vaseline Machine No. 2
TTITLE9=Fatback Mama
TTITLE10=Bring It On Home
EXTD=
EXTT0=
EXTT1=
EXTT2=
EXTT3=
EXTT4=
EXTT5=
EXTT6=
EXTT7=
EXTT8=
EXTT9=
EXTT10=
PLAYORDER=
